<?xml version="1.0" encoding="UTF-8"?>
<!DOCTYPE svg PUBLIC "-//W3C//DTD SVG 1.1//EN" "http://www.w3.org/Graphics/SVG/1.1/DTD/svg11.dtd">
<svg xmlns="http://www.w3.org/2000/svg" version="1.1" width="500px" height="500px" style="shape-rendering:geometricPrecision; text-rendering:geometricPrecision; image-rendering:optimizeQuality; fill-rule:evenodd; clip-rule:evenodd" xmlns:xlink="http://www.w3.org/1999/xlink">
<g><path style="opacity:0.989" fill="#ffc200" d="M 101.5,179.5 C 200.834,179.333 300.167,179.5 399.5,180C 410,182.5 416.5,189 419,199.5C 419.972,233.214 419.639,266.881 418,300.5C 414.674,308.493 408.841,313.659 400.5,316C 299.444,316.993 198.444,316.66 97.5,315C 89.9107,311.745 84.7441,306.245 82,298.5C 80.3873,267.197 80.054,235.864 81,204.5C 82.2549,191.426 89.0882,183.093 101.5,179.5 Z"/></g>
<g><path style="opacity:1" fill="#ff8b00" d="M 104.5,191.5 C 200.666,190.334 296.999,190.168 393.5,191C 391.187,191.662 388.854,192.162 386.5,192.5C 292.668,191.501 198.668,191.167 104.5,191.5 Z"/></g>
<g><path style="opacity:1" fill="#ff2002" d="M 104.5,191.5 C 198.668,191.167 292.668,191.501 386.5,192.5C 384.698,199.095 383.865,206.095 384,213.5C 380.155,208.997 375.322,207.497 369.5,209C 364.432,211.078 360.266,214.245 357,218.5C 356.814,216.1 356.314,213.766 355.5,211.5C 349.668,213.496 345.168,217.162 342,222.5C 341.503,219.854 341.336,217.187 341.5,214.5C 335.301,215.089 329.301,216.089 323.5,217.5C 322.833,217.5 322.167,217.5 321.5,217.5C 315.805,218.087 310.139,218.92 304.5,220C 303.751,221.734 303.251,223.567 303,225.5C 296.403,220.332 289.57,220.165 282.5,225C 277.98,228.536 274.814,233.036 273,238.5C 272.5,230.173 272.334,221.84 272.5,213.5C 266.489,214.073 260.489,214.74 254.5,215.5C 254.5,222.833 254.5,230.167 254.5,237.5C 249.484,238.058 244.484,238.725 239.5,239.5C 237.586,236.316 236.92,232.649 237.5,228.5C 237.5,225.167 237.5,221.833 237.5,218.5C 231.878,219.548 226.211,220.381 220.5,221C 219.536,225.066 219.203,229.233 219.5,233.5C 213.822,234.391 208.156,235.391 202.5,236.5C 199.765,244.538 196.932,252.538 194,260.5C 190.942,253.713 188.442,246.713 186.5,239.5C 180.121,239.727 173.788,240.394 167.5,241.5C 163.875,244.623 160.375,247.956 157,251.5C 156.503,248.854 156.336,246.187 156.5,243.5C 151.227,244.601 145.894,245.267 140.5,245.5C 140.5,241.833 140.5,238.167 140.5,234.5C 126.149,236.392 111.816,238.392 97.5,240.5C 96.1667,240.5 94.8333,240.5 93.5,240.5C 93.5,227.5 93.5,214.5 93.5,201.5C 95.275,196.057 98.9417,192.724 104.5,191.5 Z"/></g>
<g><path style="opacity:1" fill="#ff2502" d="M 217.5,244.5 C 218.489,249.975 218.822,255.642 218.5,261.5C 218.5,267.833 218.5,274.167 218.5,280.5C 224.448,279.398 230.448,278.731 236.5,278.5C 236.5,270.5 236.5,262.5 236.5,254.5C 242.125,253.507 247.792,252.84 253.5,252.5C 253.5,260.167 253.5,267.833 253.5,275.5C 254.791,275.737 255.791,275.404 256.5,274.5C 261.484,273.725 266.484,273.058 271.5,272.5C 272.167,268.167 272.833,263.833 273.5,259.5C 277.995,270.282 285.661,273.115 296.5,268C 299.333,266.5 301.5,264.333 303,261.5C 303.333,263.5 303.667,265.5 304,267.5C 309.73,266.085 315.564,265.085 321.5,264.5C 321.5,251.833 321.5,239.167 321.5,226.5C 322.482,229.962 322.815,233.629 322.5,237.5C 322.5,246.5 322.5,255.5 322.5,264.5C 328.432,263.129 334.432,262.129 340.5,261.5C 340.334,254.159 340.5,246.826 341,239.5C 342.606,235.108 345.772,232.775 350.5,232.5C 351.167,235.167 351.833,237.833 352.5,240.5C 354.125,254.624 361.792,259.791 375.5,256C 378.295,254.207 380.795,252.04 383,249.5C 383.494,251.134 383.66,252.801 383.5,254.5C 389.456,253.506 395.456,252.839 401.5,252.5C 401.753,233.162 402.253,213.829 403,194.5C 405.681,196.527 407.347,199.193 408,202.5C 408.667,232.833 408.667,263.167 408,293.5C 406.167,299.333 402.333,303.167 396.5,305C 328.5,305.667 260.5,305.667 192.5,305C 201.128,284.948 209.461,264.781 217.5,244.5 Z"/></g>
<g><path style="opacity:1" fill="#ff4d01" d="M 93.5,201.5 C 93.5,214.5 93.5,227.5 93.5,240.5C 94.8333,240.5 96.1667,240.5 97.5,240.5C 96.0813,241.451 94.4147,241.784 92.5,241.5C 92.1711,227.99 92.5044,214.656 93.5,201.5 Z"/></g>
<g><path style="opacity:1" fill="#ff5201" d="M 321.5,217.5 C 322.167,217.5 322.833,217.5 323.5,217.5C 323.824,224.354 323.491,231.021 322.5,237.5C 322.815,233.629 322.482,229.962 321.5,226.5C 321.5,223.5 321.5,220.5 321.5,217.5 Z"/></g>
<g><path style="opacity:1" fill="#ff2902" d="M 374.5,224.5 C 380.486,222.895 383.486,225.062 383.5,231C 383.95,236.546 381.45,239.713 376,240.5C 372.127,239.792 370.294,237.458 370.5,233.5C 370.488,229.861 371.821,226.861 374.5,224.5 Z"/></g>
<g><path style="opacity:1" fill="#ff6d01" d="M 350.5,232.5 C 350.56,231.957 350.893,231.624 351.5,231.5C 352.484,234.428 352.817,237.428 352.5,240.5C 351.833,237.833 351.167,235.167 350.5,232.5 Z"/></g>
<g><path style="opacity:1" fill="#ff9300" d="M 237.5,228.5 C 236.92,232.649 237.586,236.316 239.5,239.5C 238.791,240.404 237.791,240.737 236.5,240.5C 236.183,236.298 236.517,232.298 237.5,228.5 Z"/></g>
<g><path style="opacity:1" fill="#ff3002" d="M 295.5,236.5 C 303.403,237.668 305.57,242.001 302,249.5C 295.838,255.584 291.671,254.417 289.5,246C 289.729,241.625 291.729,238.458 295.5,236.5 Z"/></g>
<g><path style="opacity:1" fill="#ff2802" d="M 130.5,249.5 C 133.167,249.5 135.833,249.5 138.5,249.5C 138.167,264.182 138.501,278.848 139.5,293.5C 145.048,292.62 150.548,291.62 156,290.5C 156.06,282.064 156.727,273.731 158,265.5C 161.883,262.235 166.383,260.568 171.5,260.5C 171.343,259.127 171.51,257.793 172,256.5C 175.978,265.621 179.812,274.788 183.5,284C 180.889,291.167 177.889,298.167 174.5,305C 150.833,305.667 127.167,305.667 103.5,305C 97.525,303.361 94.025,299.528 93,293.5C 92.3333,281.167 92.3333,268.833 93,256.5C 97.3887,255.325 101.889,254.659 106.5,254.5C 106.5,269.167 106.5,283.833 106.5,298.5C 112.189,297.607 117.856,296.607 123.5,295.5C 124.333,280.845 124.833,266.178 125,251.5C 126.948,250.891 128.782,250.224 130.5,249.5 Z"/></g>
<g><path style="opacity:1" fill="#ff9d00" d="M 218.5,261.5 C 218.822,255.642 218.489,249.975 217.5,244.5C 217.987,243.527 218.487,242.527 219,241.5C 219.821,248.346 219.654,255.013 218.5,261.5 Z"/></g>
<g><path style="opacity:1" fill="#ff7d01" d="M 273.5,259.5 C 272.833,263.833 272.167,268.167 271.5,272.5C 271.334,266.824 271.501,261.157 272,255.5C 272.41,256.901 272.91,258.234 273.5,259.5 Z"/></g>
<g><path style="opacity:1" fill="#ff8001" d="M 253.5,252.5 C 253.848,260.057 254.848,267.39 256.5,274.5C 255.791,275.404 254.791,275.737 253.5,275.5C 253.5,267.833 253.5,260.167 253.5,252.5 Z"/></g>
</svg>
