
<svg version="1.0" xmlns="http://www.w3.org/2000/svg"
 width="500.000000pt" height="500.000000pt" viewBox="0 0 500.000000 500.000000"
 preserveAspectRatio="xMidYMid meet">

<g transform="translate(0.000000,500.000000) scale(0.100000,-0.100000)"
fill="#000000" stroke="none">
<path d="M999 3057 c-62 -41 -69 -68 -69 -285 l0 -193 33 6 c17 3 125 21 240
39 l207 32 0 -59 0 -60 43 6 c23 3 61 9 85 13 l42 7 0 -37 0 -37 45 46 c44 44
47 45 141 58 l96 14 10 -26 c6 -14 21 -56 33 -93 39 -113 38 -114 82 17 21 65
46 122 54 126 8 5 47 13 87 20 l72 11 0 59 c0 66 -9 59 104 79 33 5 63 10 68
10 4 0 8 -47 8 -105 0 -60 4 -105 10 -105 5 0 43 5 85 11 l75 11 0 108 0 108
88 13 c48 7 89 11 91 8 2 -2 3 -60 2 -129 l-1 -125 18 40 c23 49 76 103 119
121 48 21 115 18 146 -6 l26 -20 3 27 c3 26 8 28 73 40 39 6 78 12 88 12 16 1
17 -17 17 -234 l0 -235 -22 -5 c-41 -9 -141 -25 -155 -25 -7 0 -13 11 -13 26
l0 27 -20 -26 c-11 -14 -40 -33 -65 -43 -81 -30 -164 -2 -198 68 l-17 33 0
-57 c0 -71 -12 -83 -86 -92 -32 -4 -69 -9 -83 -13 l-24 -6 5 117 5 117 -52 -6
c-29 -4 -67 -10 -86 -14 l-34 -7 -3 -115 -3 -116 -69 -12 c-121 -20 -109 -38
-112 171 l-3 181 -119 -289 c-65 -159 -121 -295 -123 -301 -4 -10 205 -13
1025 -13 1029 0 1029 0 1056 21 57 45 56 38 56 546 l0 468 -23 35 -22 35 -6
-200 c-4 -110 -7 -241 -8 -291 l-1 -91 -77 -11 c-103 -16 -103 -16 -103 14 l0
27 -25 -27 c-52 -57 -150 -73 -211 -36 -45 28 -75 95 -77 170 -2 50 -5 60 -20
60 -25 0 -73 -26 -80 -43 -3 -8 -9 -67 -13 -131 -6 -107 -8 -117 -28 -121 -33
-7 -139 -25 -148 -25 -10 0 -10 176 -1 351 l6 126 76 12 c104 15 101 16 101
-25 l0 -37 50 47 c27 25 53 46 59 46 5 0 16 3 25 6 13 5 16 -1 16 -30 l0 -36
38 38 c60 60 157 80 205 42 14 -11 28 -20 31 -20 3 0 6 45 6 99 0 86 2 100 18
104 9 3 -625 5 -1409 6 l-1426 1 -34 -23z"/>
<path d="M3731 2724 c-27 -34 -27 -88 -1 -114 23 -23 33 -24 63 -8 34 18 46
40 47 84 0 48 -14 64 -56 64 -23 0 -39 -8 -53 -26z"/>
<path d="M2948 2615 c-59 -33 -54 -145 7 -145 37 0 55 10 71 42 22 43 11 96
-22 108 -30 12 -23 12 -56 -5z"/>
<path d="M1305 2491 l-40 -6 -6 -90 c-4 -49 -7 -151 -8 -226 l-1 -136 -77 -11
c-43 -7 -84 -12 -90 -12 -10 0 -13 51 -13 221 l0 221 -47 -7 c-103 -14 -93 7
-93 -196 0 -199 6 -227 59 -272 l33 -27 364 0 365 0 38 83 c57 125 57 114 5
234 -65 151 -62 146 -79 130 -7 -8 -31 -17 -53 -21 -22 -3 -50 -14 -63 -25
-22 -18 -24 -28 -29 -142 l-5 -124 -70 -12 c-123 -21 -110 -45 -107 207 l3
220 -23 -1 c-13 -1 -41 -5 -63 -8z"/>
</g>
</svg>
